{"title":"ABBA.The.Movie.1977.720p.BluRay.DTS.x264-ESiR","uid":6515507,"size":4678273539,"categoryP":"video","categoryS":"hd___movies","magnet":"?xt=urn:btih:4631192a5612b95f0711ec00e9cf62fe1a88f9b6&amp;dn=ABBA.The.Movie.1977.720p.BluRay.DTS.x264-ESiR&amp;tr=udp%3A%2F%2Ftracker.openbittorrent.com%3A80&amp;tr=udp%3A%2F%2Fopen.demonii.com%3A1337&amp;tr=udp%3A%2F%2Ftracker.coppersurfer.tk%3A6969&amp;tr=udp%3A%2F%2Fexodus.desync.com%3A6969","seeders":0,"leechers":1,"uploader":"TPBAgri","files":-1,"time":1309799091,"description":"ABBA.The.Movie.1977.720p.BluRay.DTS.x264-ESiR\n &lt;a href=&quot;\nhttp://www.imdb.com/title/tt0075617/&quot; rel=&quot;nofollow&quot; target=&quot;_NEW&quot;&gt;\nhttp://www.imdb.com/title/tt0075617/&lt;/a&gt;\n\nTitle: ABBA: The Movie\nYear: 1977\nRuntime: 95 mins\nVotes: 1,513 votes\nRating: 6.1\nAll Genres: Music, IMDb Music section\nTagline:\nDirector: Lasse Hallstrom\nWriting By: Robert Caswell Lasse Hallstrom\n\nDescription:\nMovie detailing ABBA's mega-successful tour of Australia during mid-1977. While it mostly contains back-stage footage and as well as ABBA's famous songs such as &quot;Dancing Queen&quot;, &quot;Tiger&quot;, &quot;Name Of The Game&quot; and &quot;Eagle&quot; among others sung filmed during their concerts in Sydney, Melbourne, Perth and Adelaide, it has the sub-plot of young country and western radio disc-jockey, Ashley, whose boss orders him to have a deep interview with ABBA and the problems he has trying to reach them as he forgets his press pass and ABBA's main bodyguard, (Tom Oliver) is determined to stop him... \n\n\nCast:\n. Anni-Frid Lyngstad as Anni-Frid\n. Benny Andersson as Benny\n. Bjorn Ulvaeus as Bjorn\n. Agnetha Faltskog as Agnetha\n. Robert Hughes as Ashley Wallace, the disc Jockey \n\n\n\nFormat                           : Matroska\nFile size                        : 4.36 GiB\nDuration                         : 1h 35mn\nOverall bit rate                 : 6 545 Kbps\n\nVideo\n\nFormat/Info                      : Advanced Video Codec\nFormat profile                   : &lt;a class=&quot;__cf_email__&quot; href=&quot;/cdn-cgi/l/email-protection&quot; data-cfemail=&quot;7a32131d123a364f544b&quot;&gt;[email&amp;#160;protected]&lt;/a&gt;&lt;script cf-hash='f9e31' type=&quot;text/javascript&quot;&gt;\n/* &lt;![CDATA[ */!function(){try{var t=&quot;currentScript&quot;in document?document.currentScript:function(){for(var t=document.getElementsByTagName(&quot;script&quot;),e=t.length;e--;)if(t[e].getAttribute(&quot;cf-hash&quot;))return t[e]}();if(t&amp;&amp;t.previousSibling){var e,r,n,i,c=t.previousSibling,a=c.getAttribute(&quot;data-cfemail&quot;);if(a){for(e=&quot;&quot;,r=parseInt(a.substr(0,2),16),n=2;a.length-n;n+=2)i=parseInt(a.substr(n,2),16)^r,e+=String.fromCharCode(i);e=document.createTextNode(e),c.parentNode.replaceChild(e,c)}}}catch(u){}}();/* ]]&gt; */&lt;/script&gt;\nFormat settings, CABAC           : Yes\nFormat settings, ReFrames        : 8 frames\nDuration                         : 1h 35mn\nBit rate                         : 5 031 Kbps\nWidth                            : 1 280 pixels\nHeight                           : 548 pixels\nDisplay aspect ratio             : 2.35:1\nFrame rate                       : 24.000 fps\nStream size                      : 3.26 GiB (75%)\nWriting library                  : x264 core 57 svn-709C\nLanguage                         : English\n\nAudio\n\nFormat                           : DTS\nCodec ID                         : A_DTS\nDuration                         : 1h 35mn\nBit rate mode                    : Constant\nBit rate                         : 1 510 Kbps\nChannel(s)                       : 6 channels\nChannel positions                : Front: L C R, Side: L R, LFE\nSampling rate                    : 48.0 KHz\nResolution                       : 24 bits\nStream size                      : 1.00 GiB (23%)\nLanguage                         : English\n","torrent":{"xt":"urn:btih:4631192a5612b95f0711ec00e9cf62fe1a88f9b6","amp;dn":"ABBA.The.Movie.1977.720p.BluRay.DTS.x264-ESiR","amp;tr":["udp%3A%2F%2Ftracker.openbittorrent.com%3A80","udp%3A%2F%2Fopen.demonii.com%3A1337","udp%3A%2F%2Ftracker.coppersurfer.tk%3A6969","udp%3A%2F%2Fexodus.desync.com%3A6969"],"infoHash":"4631192a5612b95f0711ec00e9cf62fe1a88f9b6","infoHashBuffer":{"type":"Buffer","data":[70,49,25,42,86,18,185,95,7,17,236,0,233,207,98,254,26,136,249,182]},"announce":[],"urlList":[]}}